<svg width="149" height="149" viewBox="0 0 149 149" fill="none" xmlns="http://www.w3.org/2000/svg">
<mask id="mask0_29_29" style="mask-type:luminance" maskUnits="userSpaceOnUse" x="25" y="0" width="98" height="149">
<path d="M122.265 0H25V148.582H122.265V0Z" fill="white"/>
</mask>
<g mask="url(#mask0_29_29)">
<path d="M49.3214 148.582C62.7413 148.582 73.6327 137.488 73.6327 123.818V99.0544H49.3214C35.9015 99.0544 25.0099 110.149 25.0099 123.818C25.0099 137.488 35.9015 148.582 49.3214 148.582Z" fill="#0ACF83"/>
<path d="M25.0099 74.2908C25.0099 60.6215 35.9015 49.5273 49.3214 49.5273H73.6327V99.0549H49.3214C35.9015 99.0549 25.0099 87.9605 25.0099 74.2908Z" fill="#A259FF"/>
<path d="M25.0103 24.7637C25.0103 11.0941 35.9018 0 49.3217 0H73.6333V49.5276H49.3217C35.9018 49.5276 25.0103 38.4331 25.0103 24.7637Z" fill="#F24E1E"/>
<path d="M73.633 0H97.9446C111.364 0 122.256 11.0941 122.256 24.7637C122.256 38.4331 111.364 49.5276 97.9446 49.5276H73.633V0Z" fill="#FF7262"/>
<path d="M122.256 74.2908C122.256 87.9605 111.364 99.0549 97.9446 99.0549C84.5245 99.0549 73.633 87.9605 73.633 74.2908C73.633 60.6215 84.5245 49.5273 97.9446 49.5273C111.364 49.5273 122.256 60.6215 122.256 74.2908Z" fill="#1ABCFE"/>
</g>
</svg>
