<svg width="149" height="149" viewBox="0 0 149 149" fill="none" xmlns="http://www.w3.org/2000/svg">
<g clip-path="url(#clip0_17_153)">
<path d="M74.5 3.10425C33.3387 3.10425 -3.8147e-06 35.8843 -3.8147e-06 76.3129C-3.8147e-06 108.665 21.3442 136.099 50.9394 145.772C54.6644 146.461 56.0302 144.195 56.0302 142.252C56.0302 140.513 55.9681 135.907 55.9371 129.804C35.2137 134.218 30.843 119.982 30.843 119.982C27.4532 111.533 22.5549 109.273 22.5549 109.273C15.8064 104.735 23.0764 104.828 23.0764 104.828C30.5574 105.337 34.4873 112.371 34.4873 112.371C41.1302 123.565 51.9265 120.33 56.1854 118.461C56.8559 113.724 58.7743 110.502 60.9038 108.671C44.3585 106.839 26.969 100.544 26.969 72.4948C26.969 64.5047 29.8559 57.9735 34.6363 52.8516C33.7982 51.0015 31.2838 43.5578 35.2882 33.4754C35.2882 33.4754 41.5275 31.5136 55.7757 40.9813C61.7357 39.3547 68.0682 38.5476 74.4007 38.5104C80.7332 38.5476 87.0657 39.3547 93.0257 40.9813C107.181 31.5136 113.42 33.4754 113.42 33.4754C117.424 43.5578 114.91 51.0015 114.165 52.8516C118.914 57.9735 121.801 64.5047 121.801 72.4948C121.801 100.619 104.387 106.808 87.8107 108.609C90.4182 110.806 92.8394 115.295 92.8394 122.155C92.8394 131.952 92.7463 139.824 92.7463 142.202C92.7463 144.12 94.05 146.411 97.8682 145.679C127.674 136.068 149 108.615 149 76.3129C149 35.8843 115.643 3.10425 74.5 3.10425Z" fill="#D4D4D4"/>
</g>
<defs>
<clipPath id="clip0_17_153">
<rect width="149" height="149" fill="white"/>
</clipPath>
</defs>
</svg>
