<svg width="48" height="128" viewBox="0 0 48 128" fill="none" xmlns="http://www.w3.org/2000/svg">
<path d="M13.7432 43.3352L13.8043 42.337L13.7432 43.3352ZM34.2551 44.592L34.194 45.5901L34.2551 44.592ZM37.0161 70.4353L36.7454 69.4726L37.0161 70.4353ZM8.21807 78.5311L7.94743 77.5685L8.21807 78.5311ZM19.0166 127.707C19.4071 128.098 20.0403 128.098 20.4308 127.707L26.7948 121.343C27.1853 120.953 27.1853 120.319 26.7948 119.929C26.4043 119.538 25.7711 119.538 25.3806 119.929L19.7237 125.586L14.0669 119.929C13.6763 119.538 13.0432 119.538 12.6527 119.929C12.2621 120.319 12.2621 120.953 12.6527 121.343L19.0166 127.707ZM11.0031 19.4521L11.2887 20.4105L11.0031 19.4521ZM13.682 44.3333L34.194 45.5901L34.3163 43.5938L13.8043 42.337L13.682 44.3333ZM36.7454 69.4726L7.94743 77.5685L8.48871 79.4938L37.2867 71.398L36.7454 69.4726ZM18.7237 105.358L18.7237 127L20.7237 127L20.7237 105.358L18.7237 105.358ZM18.7237 -1.09046e-07L18.7237 7.75341L20.7237 7.75341L20.7237 -1.06708e-07L18.7237 -1.09046e-07ZM18.7237 7.75341C18.7237 12.7101 15.4677 17.078 10.7175 18.4938L11.2887 20.4105C16.8866 18.7421 20.7237 13.5946 20.7237 7.75341L18.7237 7.75341ZM10.6687 97.3033C15.1174 97.3033 18.7237 100.91 18.7237 105.358L20.7237 105.358C20.7237 99.8051 16.2219 95.3033 10.6687 95.3033L10.6687 97.3033ZM7.94743 77.5685C-3.30145 80.7308 -1.01625 97.3033 10.6687 97.3033L10.6687 95.3033C1.30794 95.3033 -0.522713 82.0272 8.48871 79.4938L7.94743 77.5685ZM34.194 45.5901C47.8911 46.4293 49.9561 65.7588 36.7454 69.4726L37.2867 71.398C52.6667 67.0743 50.2625 44.5709 34.3163 43.5938L34.194 45.5901ZM13.8043 42.337C1.30048 41.5709 -0.716721 23.9885 11.2887 20.4105L10.7175 18.4938C-3.4304 22.7103 -1.05324 43.4305 13.682 44.3333L13.8043 42.337Z" fill="#FFFAED"/>
</svg>
