<svg width="93" height="93" viewBox="0 0 93 93" fill="none" xmlns="http://www.w3.org/2000/svg">
<g clip-path="url(#clip0_9_28)" filter="url(#filter0_i_9_28)">
<path d="M65.2948 0H27.7052C12.4285 0 0 12.4285 0 27.7052V65.2948C0 80.5715 12.4285 93 27.7052 93H65.2948C80.5715 93 93 80.5715 93 65.2948V27.7052C92.9998 12.4285 80.5713 0 65.2948 0ZM83.6442 65.2948C83.6442 75.4288 75.4288 83.6442 65.2948 83.6442H27.7052C17.5712 83.6442 9.3558 75.4288 9.3558 65.2948V27.7052C9.3558 17.571 17.5712 9.3558 27.7052 9.3558H65.2948C75.4288 9.3558 83.6442 17.571 83.6442 27.7052V65.2948Z" fill="#A3F5F5"/>
<path d="M46.5 22.4469C33.2371 22.4469 22.4469 33.2371 22.4469 46.4998C22.4469 59.7626 33.2371 70.5529 46.5 70.5529C59.7629 70.5529 70.5531 59.7627 70.5531 46.4998C70.5531 33.2369 59.7629 22.4469 46.5 22.4469ZM46.5 61.1973C38.3828 61.1973 31.8027 54.6172 31.8027 46.5C31.8027 38.3828 38.383 31.8027 46.5 31.8027C54.6172 31.8027 61.1973 38.3828 61.1973 46.5C61.1973 54.617 54.617 61.1973 46.5 61.1973Z" fill="#A3F5F5"/>
<path d="M70.5997 28.3911C73.7828 28.3911 76.3633 25.8106 76.3633 22.6275C76.3633 19.4443 73.7828 16.8638 70.5997 16.8638C67.4165 16.8638 64.8361 19.4443 64.8361 22.6275C64.8361 25.8106 67.4165 28.3911 70.5997 28.3911Z" fill="#A3F5F5"/>
</g>
<defs>
<filter id="filter0_i_9_28" x="0" y="0" width="94.5" height="94.5" filterUnits="userSpaceOnUse" color-interpolation-filters="sRGB">
<feFlood flood-opacity="0" result="BackgroundImageFix"/>
<feBlend mode="normal" in="SourceGraphic" in2="BackgroundImageFix" result="shape"/>
<feColorMatrix in="SourceAlpha" type="matrix" values="0 0 0 0 0 0 0 0 0 0 0 0 0 0 0 0 0 0 127 0" result="hardAlpha"/>
<feOffset dx="5" dy="5"/>
<feGaussianBlur stdDeviation="0.75"/>
<feComposite in2="hardAlpha" operator="arithmetic" k2="-1" k3="1"/>
<feColorMatrix type="matrix" values="0 0 0 0 0.586684 0 0 0 0 0.651667 0 0 0 0 0.546857 0 0 0 0.59 0"/>
<feBlend mode="normal" in2="shape" result="effect1_innerShadow_9_28"/>
</filter>
<clipPath id="clip0_9_28">
<rect width="93" height="93" fill="white"/>
</clipPath>
</defs>
</svg>
