<svg width="93" height="93" viewBox="0 0 93 93" fill="none" xmlns="http://www.w3.org/2000/svg">
<g clip-path="url(#clip0_14_50)" filter="url(#filter0_i_14_50)">
<path d="M46.5 93C72.1874 93 93 72.1874 93 46.5C93 20.8126 72.1874 0 46.5 0C20.8126 0 0 20.8126 0 46.5C0 72.1874 20.8126 93 46.5 93ZM21.2776 45.4925L66.1114 28.2061C68.1923 27.4544 70.0096 28.7138 69.3354 31.8603L69.3392 31.8564L61.7055 67.8203C61.1397 70.37 59.6246 70.99 57.505 69.7887L45.88 61.2211L40.2729 66.6229C39.6529 67.2429 39.1297 67.766 37.9285 67.766L38.7539 55.9356L60.2989 36.4715C61.2366 35.6461 60.0896 35.1811 58.8535 36.0026L32.2284 52.7659L20.7506 49.1854C18.259 48.3949 18.2048 46.6937 21.2776 45.4925Z" fill="#EEF5A3"/>
</g>
<defs>
<filter id="filter0_i_14_50" x="0" y="0" width="94.5" height="94.5" filterUnits="userSpaceOnUse" color-interpolation-filters="sRGB">
<feFlood flood-opacity="0" result="BackgroundImageFix"/>
<feBlend mode="normal" in="SourceGraphic" in2="BackgroundImageFix" result="shape"/>
<feColorMatrix in="SourceAlpha" type="matrix" values="0 0 0 0 0 0 0 0 0 0 0 0 0 0 0 0 0 0 127 0" result="hardAlpha"/>
<feOffset dx="5" dy="5"/>
<feGaussianBlur stdDeviation="0.75"/>
<feComposite in2="hardAlpha" operator="arithmetic" k2="-1" k3="1"/>
<feColorMatrix type="matrix" values="0 0 0 0 0.649354 0 0 0 0 0.659372 0 0 0 0 0.539151 0 0 0 0.59 0"/>
<feBlend mode="normal" in2="shape" result="effect1_innerShadow_14_50"/>
</filter>
<clipPath id="clip0_14_50">
<rect width="93" height="93" fill="white"/>
</clipPath>
</defs>
</svg>
