<svg width="93" height="93" viewBox="0 0 93 93" fill="none" xmlns="http://www.w3.org/2000/svg">
<g clip-path="url(#clip0_15_127)">
<g filter="url(#filter0_i_15_127)">
<path d="M88.3789 53.8866C91.1534 30.5319 87.0459 15.7876 79.6369 9.11868L79.6408 9.11481C67.6825 -2.27382 27.2973 -3.95944 12.9908 9.62631C6.56601 16.2719 4.30301 26.0253 4.05501 38.0998C3.80701 50.1782 3.51251 72.8043 24.5964 78.9423H24.6158L24.5964 88.3159C24.5964 88.3159 24.453 92.1134 26.8788 92.8768C29.6533 93.7758 30.9088 92.0127 39.5384 81.7052C53.9689 82.9568 65.0514 80.0893 66.3108 79.6708C69.2248 78.6943 85.7129 76.5127 88.3789 53.8866ZM40.9605 75.1099C40.9605 75.1099 31.8271 86.4986 28.9868 89.4552C28.0568 90.4162 27.0376 90.3271 27.0531 88.4206C27.0531 87.1689 27.1229 72.8586 27.1229 72.8586C9.24751 67.7358 10.3015 48.4693 10.4953 38.3904C10.689 28.3077 12.5335 20.0501 17.974 14.4894C30.5251 2.72106 65.931 5.35218 74.952 13.8307C85.9803 23.6073 82.0549 51.2283 82.0781 52.1699C79.8113 71.0567 66.4503 72.2541 63.9935 73.0717C62.9434 73.4204 53.1978 75.9276 40.9605 75.1099Z" fill="#EEF5A3"/>
<path d="M46.0135 16.7021C44.5216 16.7021 44.5216 19.0271 46.0135 19.0465C57.5881 19.1356 67.1206 27.2034 67.2253 42.002C67.2253 43.5637 69.5115 43.5443 69.4921 41.9827C69.3681 26.037 58.956 16.7913 46.0135 16.7021Z" fill="#EEF5A3"/>
<path d="M61.2384 39.5491C61.2035 41.0913 63.4859 41.1649 63.5053 39.6033C63.6951 30.8109 58.274 23.5686 48.0866 22.8052C46.5948 22.6967 46.4398 25.0411 47.9278 25.1496C56.7628 25.8199 61.4166 31.8494 61.2384 39.5491ZM58.7971 49.5504C56.8829 48.4422 54.9338 49.1319 54.1278 50.2208L52.4421 52.4024C51.5858 53.5107 49.9854 53.3634 49.9854 53.3634C38.3061 50.2751 35.1829 38.0533 35.1829 38.0533C35.1829 38.0533 35.0395 36.3987 36.109 35.5113L38.217 33.7676C39.271 32.9306 39.9375 30.9156 38.8641 28.9354C35.9966 23.7546 34.0708 21.9682 33.0904 20.5964C32.0596 19.3061 30.5096 19.0154 28.8976 19.8873H28.8628C25.5109 21.8481 21.8413 25.5177 23.0154 29.2958C25.0188 33.2793 28.7 45.9777 40.4335 55.5722C45.9476 60.1098 54.6741 64.7598 58.3786 65.8332L58.4135 65.8874C62.0638 67.1042 65.6133 63.2912 67.5081 59.8386V59.8114C68.349 58.1413 68.07 56.5603 66.8416 55.5257C64.6639 53.4022 61.3779 51.0578 58.7971 49.5504Z" fill="#EEF5A3"/>
<path d="M49.6831 31.4543C53.407 31.6713 55.2128 33.6165 55.4065 37.6116C55.4763 39.1733 57.7431 39.0648 57.6734 37.5031C57.4254 32.2874 54.7051 29.3811 49.8071 29.1099C48.3153 29.0208 48.1758 31.3651 49.6831 31.4543Z" fill="#EEF5A3"/>
</g>
</g>
<defs>
<filter id="filter0_i_15_127" x="4" y="0" width="86.7497" height="94.582" filterUnits="userSpaceOnUse" color-interpolation-filters="sRGB">
<feFlood flood-opacity="0" result="BackgroundImageFix"/>
<feBlend mode="normal" in="SourceGraphic" in2="BackgroundImageFix" result="shape"/>
<feColorMatrix in="SourceAlpha" type="matrix" values="0 0 0 0 0 0 0 0 0 0 0 0 0 0 0 0 0 0 127 0" result="hardAlpha"/>
<feOffset dx="5" dy="5"/>
<feGaussianBlur stdDeviation="0.75"/>
<feComposite in2="hardAlpha" operator="arithmetic" k2="-1" k3="1"/>
<feColorMatrix type="matrix" values="0 0 0 0 0.65098 0 0 0 0 0.658824 0 0 0 0 0.537255 0 0 0 0.59 0"/>
<feBlend mode="normal" in2="shape" result="effect1_innerShadow_15_127"/>
</filter>
<clipPath id="clip0_15_127">
<rect width="93" height="93" fill="white"/>
</clipPath>
</defs>
</svg>
