<svg width="420" height="157" viewBox="0 0 420 157" fill="none" xmlns="http://www.w3.org/2000/svg">
<g filter="url(#filter0_d_14_85)">
<path d="M-36.0808 97.8581C-54.7422 73.581 -48.2587 38.4854 -22.1553 22.478L-5.74811 12.4167C5.97934 5.2251 21.1709 7.44331 30.3524 17.6879L35.3933 23.3125C44.1956 33.134 59.6266 32.9779 68.2283 22.9802L72.9266 17.5196C80.3421 8.90061 94.0223 10.0795 99.8541 19.84C106.037 30.1877 120.823 30.7464 127.769 20.8946L128.533 19.8106C135.412 10.0531 149.822 9.88345 156.93 19.4762L158.556 21.6715C165.864 31.5358 180.721 31.241 187.632 21.0944C194.609 10.8505 209.65 10.6694 216.872 20.7423L217.774 22.0012C224.98 32.0506 239.73 32.6007 247.664 23.116L250.041 20.2742C258.833 9.76396 275.161 10.0434 283.802 20.6776C292.624 31.5336 309.456 31.5866 318.355 20.794C327.237 10.0209 343.825 9.67627 352.932 20.2607L353.368 20.7681C362.791 31.7198 379.846 31.4182 388.875 20.1402L390.353 18.2941C398.595 8.00056 413.407 5.86248 424.222 13.4051L443.523 26.8649C456.98 36.2494 465 51.6194 465 68.0254V79.5646C465 95.0966 457.755 109.74 445.408 119.163L424.679 134.982C413.876 143.227 398.408 140.989 390.383 130.021L388.822 127.887C380.122 115.995 362.475 115.689 353.369 127.272L352.964 127.787C344.142 139.008 326.949 138.651 318.36 127.252C309.759 115.835 292.314 115.908 283.793 127.384C275.453 138.617 258.535 138.925 250.039 127.81L247.762 124.831C240.064 114.76 224.723 115.317 217.776 125.921L216.902 127.256C209.949 137.867 194.335 137.685 187.632 126.915C180.988 116.241 165.556 115.945 158.507 126.356L156.96 128.642C150.109 138.76 135.149 138.59 128.531 128.318L127.865 127.283C121.164 116.883 105.776 117.442 99.8476 128.3C94.2387 138.573 79.9535 139.765 72.7194 130.564L67.1391 123.466C59.0225 113.143 43.7787 112.053 34.2765 121.118L28.1317 126.98C15.2405 139.277 -5.46751 137.684 -16.3253 123.558L-36.0808 97.8581Z" fill="#B3BB4D"/>
</g>
<defs>
<filter id="filter0_d_14_85" x="-46.7692" y="0" width="526.269" height="166.5" filterUnits="userSpaceOnUse" color-interpolation-filters="sRGB">
<feFlood flood-opacity="0" result="BackgroundImageFix"/>
<feColorMatrix in="SourceAlpha" type="matrix" values="0 0 0 0 0 0 0 0 0 0 0 0 0 0 0 0 0 0 127 0" result="hardAlpha"/>
<feOffset dx="9" dy="11"/>
<feGaussianBlur stdDeviation="2.75"/>
<feComposite in2="hardAlpha" operator="out"/>
<feColorMatrix type="matrix" values="0 0 0 0 0 0 0 0 0 0 0 0 0 0 0 0 0 0 0.25 0"/>
<feBlend mode="normal" in2="BackgroundImageFix" result="effect1_dropShadow_14_85"/>
<feBlend mode="normal" in="SourceGraphic" in2="effect1_dropShadow_14_85" result="shape"/>
</filter>
</defs>
</svg>
